<?xml version="1.0" standalone="no"?>
<!DOCTYPE svg PUBLIC "-//W3C//DTD SVG 20010904//EN"
 "http://www.w3.org/TR/2001/REC-SVG-20010904/DTD/svg10.dtd">
<svg version="1.0" xmlns="http://www.w3.org/2000/svg"
 width="320.000000pt" height="320.000000pt" viewBox="0 0 320.000000 320.000000"
 preserveAspectRatio="xMidYMid meet">
<metadata>
Created by potrace 1.11, written by Peter Selinger 2001-2013
</metadata>
<g transform="translate(0.000000,320.000000) scale(0.100000,-0.100000)"
fill="#000000" stroke="none">
<path d="M0 1600 l0 -1600 1600 0 1600 0 0 1600 0 1600 -1600 0 -1600 0 0
-1600z m786 365 c115 -322 211 -585 214 -585 3 0 102 263 220 585 l215 585
138 0 137 0 0 -765 0 -765 -105 0 -105 0 -2 612 -3 612 -206 -559 -207 -560
-105 -3 -105 -3 -16 43 c-9 24 -101 282 -206 573 l-189 530 -1 -622 0 -623
-95 0 -95 0 0 765 0 765 153 0 153 0 210 -585z m1937 562 c175 -59 249 -155
248 -321 -1 -161 -78 -273 -245 -358 l-61 -31 35 -12 c239 -83 363 -258 330
-468 -25 -163 -129 -263 -313 -301 -58 -12 -139 -16 -347 -16 l-270 0 0 766 0
766 288 -5 c231 -3 296 -7 335 -20z"/>
<path d="M2320 2134 l0 -257 98 5 c206 11 317 96 330 254 8 103 -24 167 -107
208 -59 30 -142 46 -243 46 l-78 0 0 -256z"/>
<path d="M2320 1458 l0 -281 130 6 c162 9 218 21 269 58 113 81 114 268 3 376
-81 78 -202 123 -334 123 l-68 0 0 -282z"/>
</g>
</svg>
